<svg xmlns="http://www.w3.org/2000/svg" xml:space="preserve" viewBox="0 0 500 500">
  <path fill="#09101E" d="M161 196v-1a79 79 0 0 1-1-70l-7 2 1-26 5-11c8-23 22-41 45-51 18-8 38-10 57-7a95 95 0 0 1 83 93c-3 2-8 4-10 7a56 56 0 0 0-6 48c3 13 10 17 23 15-5 8-14 8-21 6-5 0-8 0-11 5-4 9-10 17-16 25-5 6-5 13-2 19 5 10 12 18 22 23 14 7 28 16 41 25 8 6 14 15 19 24l3 4 6-15 6-11c2-4 7-3 12-3v8l11-4h23c9 0 12 8 14 15l4 25c2 12-1 23-7 33-4 8-7 15-7 24 0 14-2 28-4 42-3 15-10 28-22 37-12 8-24 10-38 5-11-4-20-10-27-20v39H246a6324 6324 0 0 1 2-110l27-63v-5l-3 3-20 43c-5 11-9 22-10 34l-1 44v54h-79l1-53v-3l-2-3-1 3v8c-3 13-12 18-22 22-24 8-43-2-59-18-6-5-9-13-14-19l-13-15c-9-11-15-23-16-36v-5c-2-15 6-23 19-29l2-2 7-1 13-2c10-1 14 3 15 13 12 3 14 6 13 16 9 6 9 16-1 22l-7 4c-9 3-9 3-7 12 0 2 2 4 3 4l104 20h4l-5-27-17-92-6-34c7-7 17-10 26-15l7-5 9-13c1-3 0-4-2-6l-22-15c-8-7-13-15-16-24-2-8-6-10-13-11l-1-1m38 32 1 1 2 2h1v1h1v1h2v1h2v1h1v1h2v1h2l9 4c40 13 77-4 93-45v-5c-7-12-7-26-5-39l1-11c5-10 9-20 22-21-4-26-16-46-35-62a84 84 0 0 0-76-15c-23 5-39 20-51 41l-1 3 12-5c4-1 7 0 10 1-5 7-9 15-11 24-6 26-6 53-2 80a62 62 0 0 0 18 40h1l1 1M83 356l-7-1-21 7c-11 5-13 10-11 22 2 22 14 37 32 48 5 3 10 5 16 6s11-2 15-8l-9-2c-11 0-16-5-17-16l-1-1-4 2-7-1c-2-3 1-5 4-6l22-11c2-1 5-1 6-3 2-1 2-4 3-6l-6-2-12 4-21 10h-6l3-6 4-3 27-11 5-5c-2-2-4-4-6-4l-9 1-24 11h-6l2-5c8-5 16-9 25-12 3-2 5-3 3-8m330 26-4 21c10 0 19-3 24-11 7-9 13-18 18-28 4-8 6-16 3-25 0-2-2-3-3-4l-11-7c-7-4-28-1-34 5l-1 6 6 2 10-3c10-2 19 1 27 6l2 4-4 2-6-2c-12-7-24-2-35 2-2 1-4 5-4 7 0 3 4 3 7 3l17-2 13 3 2 4-4 1-8-1c-12-1-12-1-14 11l-1 6m-167-9 8-18c5-9 7-19 1-29l-2-6 1-6 9-10-17-17-9 12c-6 6-7 4-1 12 3 4 4 7 1 12-8 18-8 18-1 36l7 18 3-4m15-82 16 16c1 2 3 3 5 0a2867 2867 0 0 0 23-36l-10-13-39 28 1 1 4 4m22-44c-18 12-36 18-58 7l2 6 19 18c1 1 4 2 6 1 13-6 24-15 34-25 4-3 4-7 4-12l-7 5m-60 20-3-6-11 13c-1 2-2 5-1 7l7 19 5 8 20-23-17-18m89 112 22-23-3-1-43 1-3 1 1 3 19 19c3 3 5 3 7 0m-113-34 26 32 9 9 3 1v-4l-2-1-34-43c-3-3-2-4 1-6l13-9v-2l-16-5c-4-1-6-3-4-7l6-14 2-7-2-1-2 4-9 19c-2 6-1 7 4 9l12 4-3 3c-12 8-11 6-4 18m186 14 5 20h1l2-8c1-3 3-7 2-9-2-8-1-13 5-17-4-7-4-12 2-18-5-7-1-14 1-21-9 17-14 34-18 53m23-43v8c15-6 29-9 43 3l-2-10c-2-8-4-10-12-9-8 0-16 2-24 4-2 0-3 2-5 4m-58 67v65l2 3 3-2v-4l-1-25 1-25v-36l-2-4-2 4-1 24m-38-53-6-5 21-6c4-1 6-3 4-7l-8-24-2-4-2 1c0 10 6 19 8 30l-26 6-4 2 3 3 11 8c3 2 3 4 0 6l-5 6v3h3l5-5c6-6 6-7 0-13l-2-1m87 41-4 22c0 2 2 5 4 6 3 1 5-1 6-4l4-26-6-1c-3-1-4 0-4 3M166 101l-3 20 1 1c2-1 5-2 6-4l7-25-1-1-10 9m216 314c2-7 6-13 3-21l-4 10-9 27 1 7 3-6 6-17m-106-38 6-5 3-4-5 1-21 16-2 4 1 1 4-2 14-11m149 38c9-4 13-8 12-15-5 10-15 10-25 10 4 5 8 5 13 5z"/>
    <path fill="#182033" d="M241 501a1650 1650 0 0 1 1-98c1-12 5-23 10-34l20-43 3-3v5l-27 63-1 7-1 103h-5z"/>
    <path fill="#F8E1B4" d="m173 286 6 34 17 92 5 27h-4L93 419c-1 0-3-2-3-4-2-9-2-9 7-12l7-4c10-6 10-16 1-22 1-10-1-13-13-16-1-10-5-14-15-13l-13 2-6 1-4-13-1-1c1-5-2-10-3-14l-4-23c-3-9-4-18-5-27l-2-13c-1-3 3-5 6-4l14 3 4 1 3 1c6 0 12-1 17 1 6 2 12-1 18 1h2c5 5 11 1 16 3 6 2 13 1 19 2 9 1 17 4 26 3 4 0 6 3 8 3l1 12m-4 94 5-1-4-3c-8-2-17-3-22-12l-3 6-32-6-1 2 4 3 18 3c13 3 13 3 16 16l-1 1-32-6v2l4 2 25 6c4 0 6 2 5 6l-8 1c-2 1-4 4-4 6l2 7c4 3 8 2 12 0s5-6 5-10l-2-8 22 4c-2-6-7-4-9-6l-1-13h1m-84-48c7 2 12-1 15-8l27 5c-3 8 2 14 9 12l8-6 2-2c2 4 2 9 5 10 2 1 7 0 10-1 5-2 5-6 4-10l-5-31-4-4-17-3c-4 0-5 1-5 5l2 11-27-5c2-9-1-13-9-16l-7-3-5-1-1 5 3 12-23-4v2l4 2 14 3c4 0 6 2 6 6l1 6-21-2c1 6 6 3 9 6-3 5 1 8 3 13l-9-2v2l3 3 91 17 1-3-5-2-59-11c-7-2-14-3-20-6z"/>
    <path fill="#583759" d="M345 125a98 98 0 0 0-84-93c-19-3-39-1-57 7a84 84 0 0 0-45 51l-5 11v-8c4-11 6-22 13-32l8-10 7-6h1l4-4 1-1c8-7 17-11 27-14a156 156 0 0 1 34-4l26 3c5 1 10 5 16 7a408 408 0 0 0 19 12l2 1 2 2a78 78 0 0 0 6 6l2 2 10 12a282 282 0 0 0 8 13c2 6 2 12 7 16 4 9 4 19 6 29-3 1-6 3-8 0z"/>
    <path fill="#552E39" d="m421 301-11 4v-8l1-10 3-18 4-13 1-6v-1l2-4v-1l1-6 3-15 5-20v-4l3-11v-1l2-7-2-3 2-5 1-3v-1l1-3 2-8c0-5 0-10 7-11 4 4 4 9 2 15l-1 12-3 15c-3 5-2 11-4 16l-5 27-6 29-2 16-2 7-2 13-2 5z"/>
    <path fill="#F1B73B" d="m119 51-11 5-8 2c-2 1-3 2-3 4l1 30c0 6-5 8-9 11-3 2-10 1-13-2-4-3-5-7-3-11 1-3 4-7 8-7l7-1c4 2 3-1 3-2l1-35 11-4 3-1 18-6c2-1 4 1 5 2l-1 7 1 21 1 4c-1 4-4 8 0 13l-2 5c-4 7-14 8-19 1-6-7-5-12 4-16l8-3 2-15-4-2z"/>
    <path fill="#08101E" d="M359 132c2 2 5 4 6 7 6 17 6 33-5 48l-3 4c-9 0-14-3-17-11-5-14-4-29 3-42 4-7 8-8 16-6z"/>
    <path fill="#F2B73C" d="M128 228c-2 6-6 9-14 8-3 0-8-6-7-10 1-3 5-5 8-8l5-1 2-1v-12h-3l-10 4c-4 0-4 2-4 4v23c0 3-6 9-9 9-6 0-11-2-12-8-1-3 2-9 6-10h7v-29l21-6 5-1v2l2-2 3 3h-1l-2 3v28l2 3 1 1z"/>
    <path fill="#2F3651" d="M359 132c-8-2-12-1-16 6-7 13-8 28-3 42 3 8 8 11 17 11l-6 4c-13 2-20-2-23-15-5-17-4-34 6-48 2-3 7-5 11-7 2 3 5 1 8 0l6 7z"/>
    <path fill="#303752" d="m153 127 7-2a78 78 0 0 0 1 70c-4 2-6-1-8-3-13-10-15-25-13-40 0-6 3-12 5-18l8-7z"/>
    <path fill="#71428C" d="m353 228 2-3 12 7c9 6 11 17 5 24-3 3-5 4-7 1l-1-3c6-6 2-9-2-12l-3-2-1 19c1 6-3 10-9 11-5 1-8-1-11-5 0-7 1-14 12-14 2 2 4 3 4 0l-1-23z"/>
    <path fill="#6A4085" d="M424 99c-3 2-6 6-10 7-5 1-14-4-14-8-1-9 4-15 12-15h5l1-39 2 7v9c5 4 3 8 3 12v25l1 2z"/>
    <path fill="#F1B73A" d="m384 208-4-5c-5-3-5-6 0-8 5-3 6-7 8-11l4-4c2 0 4 2 5 4l10 15h1l-5 6-6 7-4 6-5-5-4-5z"/>
    <path fill="#774390" d="m424 99-1-2V72c0-4 2-8-3-12v-9l-2-7 2-4 16 12c4 2 7 5 8 9v15c-1 4-7 6-12 4l3-10c0-4-5-8-9-7l-1 16 1 16-2 4z"/>
    <path fill="#6D4088" d="M65 182c-4 5-12 6-16 1l-5-10c5-5 8-12 18-8h1c2-2 3-3 3-5v-33l11 9 2 4h-4c-5-2-7 1-7 6v9l1 13c0 4 0 8-3 11l-1 3z"/>
    <path fill="#7E4498" d="m65 182 1-3c3-3 3-7 3-11l-1-13v-9c0-5 2-8 7-6h4l-2-4-11-9v33c0 2-1 3-3 5v-38c5-4 5-4 9 1 3 4 8 7 12 10 7 6 7 21-2 27h-7c3-5 6-9 5-13 0-2-4-5-8-7v24c0 5 0 10-7 13z"/>
    <path fill="#FFFE51" d="m92 45-1 35c0 1 1 4-3 2l1-5V49l3-4z"/>
    <path fill="#8747B8" d="m353 228 1 23c0 3-2 2-4 0a231 231 0 0 1 3-23z"/>
    <path fill="#A353A9" d="M63 127v1a4274 4274 0 0 1 0-1z"/>
    <path fill="gray" d="M426 94a172 172 0 0 1 0-31l1 2-1 29z"/>
    <path fill="#633B60" d="M347 96c-5-4-5-10-7-16l3 4 4 12z"/>
    <path fill="#FF0200" d="m130 68-1-4V47l2 3-1 18z"/>
    <path fill="#61485F" d="M306 40z"/>
    <path fill="#080421" d="M129 47v17l-1-21 1-7v11z"/>
    <path fill="#FFA850" d="m119 51 4 2-2 15V55l-2-4z"/>
    <path fill="#FA5" d="M128 227h-1v-34h1v34z"/>
    <path fill="#633B60" d="M332 67z"/>
    <path fill="#AC5A50" d="m119 205 3-1v12l-2 1-1-12z"/>
    <path fill="#633B60" d="m339 77-7-10c4 2 6 5 7 10z"/>
    <path fill="#5F3945" d="m433 177 2 3-2 7c-4-1-1-3-1-5l1-5zm0 11z"/>
    <path fill="#684165" d="M182 45z"/>
    <path fill="#65363B" d="m422 238-1 6c-4-2 0-4 1-6zm-3 12-1 6 1-6zm2-5-2 4 2-4z"/>
    <path fill="#633B60" d="m310 44-2-3 2 2v1z"/>
    <path fill="#F8C039" d="m125 190-2 2v-2h2z"/>
    <path fill="#61485F" d="M310 44v-1l3 2h-1l-2-1z"/>
    <path fill="#633B60" d="m322 55-2-2 2 2zm-10-10h1l1 2-2-2z"/>
    <path fill="#F6B087" d="M208 234h-1l-1-1-2-1-1-1v-4l-3 1h-1l-1-1-1-1-1-1a60 60 0 0 1-17-38c-4-27-4-54 2-80 2-9 6-17 12-24 10 11 23 17 37 20 24 5 48 5 72-2 0 13 1 25 6 37-5 2-1 5-2 8-1 2-2 5-4 5-2 1-4-1-6-2l-2-4c-6 4-8 10-7 15l-10 2c0-9-2-12-10-12-4-2-18 0-20 3l-2 4-3 3c-4 0-4 3-5 6 0 2-1 3-4 3v-2l1-7-2-3-3 3-9 22c-2 4 0 8 5 9 4 2 8 2 12 2l-11 10-5 2 2 4 9 5c-3 8-9 11-17 7h-4c-5 2-6 5-3 10v3m-7-69c2 4 5 5 9 3s6-8 4-12-4-6-9-5c-4 1-6 5-5 10l1 4m61-41-3 2-3 5 5 1c6-2 11-2 17 1h5l-1-5-4-3-16-1m-51 7c2 1 5 3 7-1 1-3-2-5-5-5-7-2-13-2-19 2-2 1-2 3-3 5l6 1 14-2z"/>
    <path fill="#291C39" d="M308 138c-5-12-6-24-6-37-24 7-48 7-72 2-14-3-27-9-37-20-4-1-7-2-11-1l-12 5 1-3c12-21 28-36 51-41 27-7 53-3 76 15 19 16 31 36 35 62-13 1-17 11-22 21l-3-3z"/>
    <path fill="#F6AE85" d="m308 138 3 3-1 11c-2 13-2 27 5 39v5a72 72 0 0 1-93 45l-10-4-1-1-2-1-1-1v-3c-3-5-2-8 3-10h4c8 4 14 1 17-8h11c7-1 14-3 18-9l1-6-6 2c-2 1-3 3-5 3-8 2-17 6-25 0l11-10h7l1-2-4-3-3-1-11-2v-2l1-2 1-3 1-2 1-3 1-3v-1h1c3 0 4-1 4-3 1-3 1-6 5-6l3-3 2-4c2-3 16-5 20-3-5 4-6 8-5 13 2 5 5 6 11 5l1-1 1-1 1-1 1-2v-1l10-2c-1-5 1-11 7-15l2 4c2 1 4 3 6 2 2 0 3-3 4-5 1-3-3-6 2-8z"/>
    <path fill="#F0AC83" d="M83 357c2 4 0 5-3 7-9 3-17 7-25 12l-2 5h6l24-11 9-1c2 0 4 2 6 4l-5 5-27 11-4 3-3 6h6l21-10 12-4 6 2c-1 2-1 5-3 6-1 2-4 2-6 3l-22 11c-3 1-6 3-4 6l7 1 4-2 1 1c1 11 6 16 17 16l9 2c-4 6-9 9-15 8s-11-3-16-6a62 62 0 0 1-32-48c-2-12 0-17 11-22l21-7 7 2z"/>
    <path fill="#F1AB81" d="m413 382 1-6c2-12 2-12 14-11l8 1 4-1-2-4-13-3-17 2c-3 0-7 0-7-3 0-2 2-6 4-7 11-4 23-9 35-2l6 2 4-2-2-4c-8-5-17-8-27-6l-10 3-6-2 1-6c6-6 27-9 34-5l11 7c1 1 3 2 3 4 3 9 1 17-3 25-5 10-11 19-18 28-5 8-14 11-24 11l4-21z"/>
    <path fill="#D84432" d="m246 373-3 4-7-18c-7-18-7-18 1-36 3-5 2-8-1-12-6-8-5-6 1-12l9-12 17 17-9 10-1 6 2 6c6 10 4 20-1 29l-8 18z"/>
    <path fill="#55417E" d="m261 291-4-4-1-1 39-28 10 13-1 4-22 32c-2 3-4 2-5 0l-16-16z"/>
    <path fill="#F1AD84" d="m283 246 7-4c0 5 0 9-4 12-10 10-21 19-34 25-2 1-5 0-6-1l-19-18-2-6c22 11 40 5 58-8z"/>
    <path fill="#57427F" d="m224 267 16 18-20 23-5-8-7-19c-1-2 0-5 1-7l11-13 4 6z"/>
    <path fill="#EEAE39" d="M312 379c-2 3-4 3-7 0l-19-19-1-3 3-1 43-1 3 1-22 23z"/>
    <path fill="#182033" d="M199 345c-7-12-8-10 4-18l3-3-12-4c-5-2-6-3-4-9l9-19 2-4 2 1-2 7-6 14c-2 4 0 6 4 7l16 5v2l-13 9c-3 2-4 3-1 6l34 43 2 1v4l-3-1-9-9-26-32z"/>
    <path fill="#E9A880" d="M385 358c4-18 9-35 18-52-2 7-6 14-1 21-6 6-6 11-2 18-6 4-7 9-5 17 1 2-1 6-2 9l-2 8h-1l-5-21z"/>
    <path fill="#EEAA81" d="M408 316c2-2 3-4 5-4 8-2 16-4 24-4 8-1 10 1 12 9l2 10c-14-12-28-9-43-3v-8z"/>
    <path fill="#182032" d="m350 382 1-23 2-4 2 4v36l-1 25 1 25v4l-3 2-2-3v-66z"/>
    <path fill="#182033" d="m312 330 2 1c6 6 6 7 0 13l-5 5h-3v-3l5-6c3-2 3-4 0-6l-11-8-3-3 4-2 26-6c-2-11-8-20-8-30l2-1 2 4 8 24c2 4 0 6-4 7l-21 6 6 5z"/>
    <path fill="#462631" d="M399 371c0-3 1-4 4-3l6 1-4 26c-1 3-3 5-6 4-2-1-4-4-4-6l4-22z"/>
    <path fill="#261A37" d="m166 101 10-9 1 1-7 25c-1 2-4 3-6 4l-1-1 3-20z"/>
    <path fill="#171F31" d="m382 416-6 16-3 6-1-7 9-27 4-10c3 8-1 14-3 22z"/>
    <path fill="#171F32" d="m276 377-14 11-4 2-1-1 2-4 21-16 5-1-3 4-6 5z"/>
    <path fill="#182033" d="M424 415c-4 0-8 0-12-5 10 0 20 0 25-10 1 7-3 11-13 15z"/>
    <path fill="#F6AE85" d="m200 228 3-1v3h-1l-2-1v-1z"/>
    <path fill="#F0AC83" d="m204 232 2 1-2-1zm5 3 2 1-2-1zm-6-4 1 1-1-1zm3 2 1 1-1-1zm2 2h1-1zm3 1 1 1-1-1zm-15-11 1 1-1-1zm6 5h1v1l-1-1zm-4-3 1 1-1-1zm2 1v1l-1-1h1z"/>
    <path fill="#131924" d="M84 333c-3-4-7-7-4-12-3-3-8 0-9-6l21 2-1-6c0-4-2-6-6-6l-14-3-4-2v-2l23 4-3-12 1-5 5 1 7 3c8 3 11 7 9 16l27 5-2-11c0-4 1-5 5-5l17 3 4 4 5 31c1 4 1 8-4 10-3 1-8 2-10 1-3-1-3-6-5-10l-2 2-8 6c-7 2-12-4-9-12l-27-5c-3 7-8 10-16 9m37-9 18 1-2-11-41-7 2 8c0 4 1 5 5 6l18 3m33-7-11-1c1 13-1 15 16 12l-1-6-4-5m-2-12-11-2c0 9 2 10 16 10-2-2 1-7-5-8m-49-1 2-1-2-4-9-5c1 9 1 9 9 10z"/>
    <path fill="#161B25" d="m167 381 2 12c2 2 7 0 9 6l-22-4 2 8c0 4-1 8-5 10s-8 3-12 0l-2-7c0-2 2-5 4-6l8-1c1-4-1-6-5-6l-25-6-4-2v-2l32 6 1-1c-3-13-3-13-16-16l-18-3-4-3 1-2 32 6 3-6c5 9 14 10 22 12l4 3h-7v2m-6 2-7-5c1 14 0 13 11 14l-4-9z"/>
    <path fill="#1D2128" d="m84 333 21 5 59 11 5 2-1 3-91-17-3-3v-2l10 1z"/>
    <path fill="#F8C039" d="M127 193a916 916 0 0 1-2 3l2-3z"/>
    <path fill="#171A23" d="M234 213h-2l-9-4-2-4 5-2c8 6 17 2 25 0 2 0 3-2 5-3l6-2-1 6c-4 6-11 8-18 9h-9z"/>
    <path fill="#131621" d="m230 176-1 2v1l-1 2-1 2v2l11 2 3 1v1l-4 4c-4 0-8 0-12-2-5-1-7-5-5-9l9-22 3-3 1 3v7h-1v3l-1 3v1l-1 2z"/>
    <path fill="#131722" d="m275 166-1 1-1 1c-6 1-9 0-11-5-1-5 0-9 5-12 8-1 10 2 10 11v1l-1 2-1 1zm-74-1-1-4c-1-5 1-9 5-10 5-1 7 1 9 5s0 10-4 12-7 1-9-3z"/>
    <path fill="#141722" d="m262 124 16 1 4 3 1 5h-5c-6-3-11-3-17-1l-5-1 3-5 3-2z"/>
    <path fill="#131721" d="m211 131-14 2-6-1c1-2 1-4 3-5 6-4 12-4 19-2 3 0 6 2 5 5-2 4-5 2-7 1z"/>
    <path fill="#F1AD84" d="m233 167 1-6-1 6zm-1 2v-2l1 2h-1z"/>
    <path fill="#F6B087" d="m238 193 3-4 4 2-1 2h-6zm0-6-11-2 11 2zm-4 26zm7-25-3-1 3 1z"/>
    <path fill="#F3DDB2" d="M120 324c-6-1-11-3-17-3-4-1-5-2-5-6l-2-8 41 7 2 11-19-1z"/>
    <path fill="#EFDBB1" d="m154 318 4 4 1 6c-17 3-15 1-16-12l11 2z"/>
    <path fill="#EDDAB1" d="M152 305c6 1 3 6 5 8-14 0-16-1-16-10l11 2z"/>
    <path fill="#E5D5AE" d="M102 304c-7-1-7-1-8-10l9 5 2 4-3 1z"/>
    <path fill="#EBD9B0" d="m161 383 4 9c-11-1-10 0-11-14l7 5z"/>
    <path fill="#F8E1B4" d="m168 380-1-1h1v1z"/>
</svg>